M48
;DRILL file {Pcbnew (2013-07-07 BZR 4022)-stable} date 4/2/2015 4:26:00 PM
;FORMAT={-:-/ absolute / inch / decimal}
FMAT,2
INCH,TZ
T1C0.032
T2C0.040
T3C0.051
T4C0.060
T5C0.120
%
G90
G05
M72
T1
X3.23Y-2.295
X3.23Y-2.395
X3.23Y-4.595
X3.23Y-4.695
X3.25Y-2.605
X3.25Y-2.795
X3.25Y-3.195
X3.25Y-4.905
X3.25Y-5.095
X3.25Y-5.495
X3.35Y-2.605
X3.35Y-2.795
X3.35Y-3.095
X3.35Y-3.255
X3.35Y-4.905
X3.35Y-5.095
X3.35Y-5.395
X3.35Y-5.555
X3.38Y-2.105
X3.38Y-2.405
X3.38Y-4.405
X3.38Y-4.705
X3.4436Y-1.6765
X3.4436Y-3.9765
X3.45Y-2.795
X3.45Y-3.095
X3.45Y-3.255
X3.45Y-3.445
X3.45Y-3.645
X3.45Y-5.095
X3.45Y-5.395
X3.45Y-5.555
X3.45Y-5.745
X3.45Y-5.945
X3.47Y-2.605
X3.47Y-4.905
X3.48Y-2.105
X3.48Y-2.405
X3.48Y-4.405
X3.48Y-4.705
X3.52Y-1.865
X3.52Y-4.165
X3.5436Y-1.6765
X3.5436Y-3.9765
X3.55Y-2.785
X3.55Y-3.185
X3.55Y-3.445
X3.55Y-3.645
X3.55Y-5.085
X3.55Y-5.485
X3.55Y-5.745
X3.55Y-5.945
X3.57Y-2.605
X3.57Y-4.905
X3.62Y-1.865
X3.62Y-4.165
X3.63Y-2.075
X3.63Y-2.475
X3.63Y-4.375
X3.63Y-4.775
X3.6436Y-1.6765
X3.6436Y-3.9765
X3.65Y-2.785
X3.65Y-3.185
X3.65Y-3.445
X3.65Y-3.645
X3.65Y-5.085
X3.65Y-5.485
X3.65Y-5.745
X3.65Y-5.945
X3.73Y-2.075
X3.73Y-2.475
X3.73Y-4.375
X3.73Y-4.775
X3.74Y-1.865
X3.74Y-4.165
X3.7436Y-1.6765
X3.7436Y-3.9765
X3.75Y-2.785
X3.75Y-3.185
X3.75Y-5.085
X3.75Y-5.485
X3.8094Y-3.5663
X3.8094Y-5.8663
X3.83Y-2.075
X3.83Y-2.475
X3.83Y-4.375
X3.83Y-4.775
X3.84Y-1.865
X3.84Y-4.165
X3.8436Y-1.6765
X3.8436Y-3.9765
X3.85Y-2.785
X3.85Y-3.185
X3.85Y-5.085
X3.85Y-5.485
X3.9094Y-3.5663
X3.9094Y-5.8663
X3.9436Y-1.6765
X3.9436Y-3.9765
X3.95Y-3.245
X3.95Y-3.345
X3.95Y-3.445
X3.95Y-5.545
X3.95Y-5.645
X3.95Y-5.745
X3.96Y-1.865
X3.96Y-4.165
X4.0094Y-3.5663
X4.0094Y-5.8663
X4.03Y-2.125
X4.03Y-2.425
X4.03Y-2.775
X4.03Y-3.075
X4.03Y-4.425
X4.03Y-4.725
X4.03Y-5.075
X4.03Y-5.375
X4.0436Y-1.6765
X4.0436Y-3.9765
X4.06Y-1.865
X4.06Y-4.165
X4.1094Y-3.5663
X4.1094Y-5.8663
X4.13Y-2.125
X4.13Y-2.425
X4.13Y-2.775
X4.13Y-3.075
X4.13Y-4.425
X4.13Y-4.725
X4.13Y-5.075
X4.13Y-5.375
X4.1436Y-1.6765
X4.1436Y-3.9765
X4.18Y-1.865
X4.18Y-4.165
X4.2094Y-3.5663
X4.2094Y-5.8663
X4.23Y-2.125
X4.23Y-2.425
X4.23Y-2.775
X4.23Y-3.075
X4.23Y-4.425
X4.23Y-4.725
X4.23Y-5.075
X4.23Y-5.375
X4.2436Y-1.6765
X4.2436Y-3.9765
X4.28Y-1.865
X4.28Y-4.165
X4.3094Y-3.5663
X4.3094Y-5.8663
X4.33Y-2.125
X4.33Y-2.425
X4.33Y-2.775
X4.33Y-3.075
X4.33Y-4.425
X4.33Y-4.725
X4.33Y-5.075
X4.33Y-5.375
X4.3436Y-1.6765
X4.3436Y-3.9765
X4.35Y-3.245
X4.35Y-3.345
X4.35Y-3.445
X4.35Y-5.545
X4.35Y-5.645
X4.35Y-5.745
X4.4094Y-3.5663
X4.4094Y-5.8663
X4.43Y-2.125
X4.43Y-2.425
X4.43Y-2.775
X4.43Y-3.075
X4.43Y-4.425
X4.43Y-4.725
X4.43Y-5.075
X4.43Y-5.375
X4.46Y-1.865
X4.46Y-4.165
X4.5082Y-1.6765
X4.5082Y-3.9765
X4.5094Y-3.5663
X4.5094Y-5.8663
X4.53Y-2.125
X4.53Y-2.425
X4.53Y-2.775
X4.53Y-3.075
X4.53Y-4.425
X4.53Y-4.725
X4.53Y-5.075
X4.53Y-5.375
X4.56Y-1.865
X4.56Y-4.165
X4.58Y-3.305
X4.58Y-5.605
X4.6082Y-1.6765
X4.6082Y-3.9765
X4.63Y-2.125
X4.63Y-2.425
X4.63Y-2.775
X4.63Y-3.075
X4.63Y-4.425
X4.63Y-4.725
X4.63Y-5.075
X4.63Y-5.375
X4.64Y-1.865
X4.64Y-4.165
X4.7066Y-3.5663
X4.7066Y-5.8663
X4.7082Y-1.6765
X4.7082Y-3.9765
X4.73Y-2.125
X4.73Y-2.425
X4.73Y-2.775
X4.73Y-3.075
X4.73Y-4.425
X4.73Y-4.725
X4.73Y-5.075
X4.73Y-5.375
X4.74Y-1.865
X4.74Y-4.165
X4.78Y-3.305
X4.78Y-5.605
X4.8066Y-3.5663
X4.8066Y-5.8663
X4.8082Y-1.6765
X4.8082Y-3.9765
X4.82Y-1.865
X4.82Y-4.165
X4.83Y-2.775
X4.83Y-3.075
X4.83Y-5.075
X4.83Y-5.375
X4.9066Y-3.5663
X4.9066Y-5.8663
X4.9082Y-1.6765
X4.9082Y-3.9765
X4.92Y-1.865
X4.92Y-4.165
X4.99Y-2.785
X4.99Y-3.185
X4.99Y-5.085
X4.99Y-5.485
X5.Y-1.865
X5.Y-4.165
X5.0066Y-3.5663
X5.0066Y-5.8663
X5.0082Y-1.6765
X5.0082Y-3.9765
X5.09Y-2.785
X5.09Y-3.185
X5.09Y-5.085
X5.09Y-5.485
X5.1Y-1.865
X5.1Y-4.165
X5.1066Y-3.5663
X5.1066Y-5.8663
X5.1082Y-1.6765
X5.1082Y-3.9765
X5.18Y-1.865
X5.18Y-2.025
X5.18Y-2.425
X5.18Y-4.165
X5.18Y-4.325
X5.18Y-4.725
X5.19Y-2.785
X5.19Y-3.085
X5.19Y-5.085
X5.19Y-5.385
X5.2066Y-3.5663
X5.2066Y-5.8663
X5.2082Y-1.6765
X5.2082Y-3.9765
X5.28Y-1.865
X5.28Y-4.165
X5.42Y-1.745
X5.42Y-1.845
X5.42Y-1.945
X5.42Y-2.045
X5.42Y-2.415
X5.42Y-2.515
X5.42Y-2.615
X5.42Y-2.715
X5.42Y-2.835
X5.42Y-2.935
X5.42Y-3.035
X5.42Y-3.135
X5.42Y-3.235
X5.42Y-4.045
X5.42Y-4.145
X5.42Y-4.245
X5.42Y-4.345
X5.42Y-4.715
X5.42Y-4.815
X5.42Y-4.915
X5.42Y-5.015
X5.42Y-5.135
X5.42Y-5.235
X5.42Y-5.335
X5.42Y-5.435
X5.42Y-5.535
X5.73Y-2.03
X5.73Y-2.13
X5.73Y-2.23
X5.73Y-2.33
X5.73Y-2.43
X5.73Y-2.55
X5.73Y-2.65
X5.73Y-2.75
X5.73Y-2.85
X5.73Y-3.22
X5.73Y-3.32
X5.73Y-3.42
X5.73Y-3.52
X5.7375Y-4.3325
X5.7375Y-4.4325
X5.7375Y-4.5325
X5.7375Y-4.6325
X5.7375Y-4.7325
X5.7375Y-4.8525
X5.7375Y-4.9525
X5.7375Y-5.0525
X5.7375Y-5.1525
X5.7375Y-5.5225
X5.7375Y-5.6225
X5.7375Y-5.7225
X5.7375Y-5.8225
X5.87Y-3.4
X5.8775Y-5.7025
X5.9418Y-3.5885
X5.9434Y-1.6987
X5.9493Y-5.891
X5.9509Y-4.0012
X5.96Y-2.18
X5.96Y-2.48
X5.9675Y-4.4825
X5.9675Y-4.7825
X5.97Y-2.84
X5.97Y-3.24
X5.97Y-3.4
X5.9775Y-5.1425
X5.9775Y-5.5425
X5.9775Y-5.7025
X6.0418Y-3.5885
X6.0434Y-1.6987
X6.0493Y-5.891
X6.05Y-3.4
X6.0509Y-4.0012
X6.0575Y-5.7025
X6.06Y-2.08
X6.06Y-2.48
X6.0675Y-4.3825
X6.0675Y-4.7825
X6.1418Y-3.5885
X6.1434Y-1.6987
X6.1493Y-5.891
X6.15Y-3.4
X6.1509Y-4.0012
X6.1575Y-5.7025
X6.16Y-2.08
X6.16Y-2.48
X6.1675Y-4.3825
X6.1675Y-4.7825
X6.23Y-3.4
X6.2375Y-5.7025
X6.2418Y-3.5885
X6.2434Y-1.6987
X6.2493Y-5.891
X6.2509Y-4.0012
X6.32Y-2.19
X6.32Y-2.49
X6.3275Y-4.4925
X6.3275Y-4.7925
X6.33Y-3.4
X6.3375Y-5.7025
X6.3418Y-3.5885
X6.3434Y-1.6987
X6.3493Y-5.891
X6.3509Y-4.0012
X6.37Y-1.96
X6.3775Y-4.2625
X6.41Y-3.4
X6.4175Y-5.7025
X6.42Y-2.19
X6.42Y-2.49
X6.42Y-2.84
X6.42Y-3.14
X6.4275Y-4.4925
X6.4275Y-4.7925
X6.4275Y-5.1425
X6.4275Y-5.4425
X6.4418Y-3.5885
X6.4434Y-1.6987
X6.4493Y-5.891
X6.4509Y-4.0012
X6.51Y-3.4
X6.5175Y-5.7025
X6.52Y-2.19
X6.52Y-2.49
X6.52Y-2.84
X6.52Y-3.14
X6.5275Y-4.4925
X6.5275Y-4.7925
X6.5275Y-5.1425
X6.5275Y-5.4425
X6.5418Y-3.5885
X6.5493Y-5.891
X6.57Y-1.96
X6.5775Y-4.2625
X6.59Y-3.4
X6.5975Y-5.7025
X6.62Y-2.19
X6.62Y-2.49
X6.62Y-2.84
X6.62Y-3.14
X6.6275Y-4.4925
X6.6275Y-4.7925
X6.6275Y-5.1425
X6.6275Y-5.4425
X6.6406Y-1.6987
X6.6418Y-3.5885
X6.6481Y-4.0012
X6.6493Y-5.891
X6.69Y-3.4
X6.6975Y-5.7025
X6.72Y-2.19
X6.72Y-2.49
X6.72Y-2.84
X6.72Y-3.14
X6.7275Y-4.4925
X6.7275Y-4.7925
X6.7275Y-5.1425
X6.7275Y-5.4425
X6.7406Y-1.6987
X6.7481Y-4.0012
X6.8Y-1.82
X6.8Y-1.92
X6.8Y-2.02
X6.8064Y-3.5885
X6.8075Y-4.1225
X6.8075Y-4.2225
X6.8075Y-4.3225
X6.8139Y-5.891
X6.82Y-2.19
X6.82Y-2.49
X6.82Y-2.84
X6.82Y-3.14
X6.8275Y-4.4925
X6.8275Y-4.7925
X6.8275Y-5.1425
X6.8275Y-5.4425
X6.8406Y-1.6987
X6.8481Y-4.0012
X6.87Y-3.4
X6.8775Y-5.7025
X6.9064Y-3.5885
X6.9139Y-5.891
X6.92Y-2.19
X6.92Y-2.49
X6.92Y-2.84
X6.92Y-3.14
X6.9275Y-4.4925
X6.9275Y-4.7925
X6.9275Y-5.1425
X6.9275Y-5.4425
X6.9406Y-1.6987
X6.9481Y-4.0012
X6.97Y-3.4
X6.9775Y-5.7025
X7.0064Y-3.5885
X7.0139Y-5.891
X7.02Y-2.19
X7.02Y-2.49
X7.02Y-2.84
X7.02Y-3.14
X7.0275Y-4.4925
X7.0275Y-4.7925
X7.0275Y-5.1425
X7.0275Y-5.4425
X7.0406Y-1.6987
X7.0481Y-4.0012
X7.09Y-3.4
X7.0975Y-5.7025
X7.1064Y-3.5885
X7.1139Y-5.891
X7.12Y-2.19
X7.12Y-2.49
X7.12Y-2.84
X7.12Y-3.14
X7.1275Y-4.4925
X7.1275Y-4.7925
X7.1275Y-5.1425
X7.1275Y-5.4425
X7.1406Y-1.6987
X7.1481Y-4.0012
X7.19Y-3.4
X7.1975Y-5.7025
X7.2Y-1.82
X7.2Y-1.92
X7.2Y-2.02
X7.2064Y-3.5885
X7.2075Y-4.1225
X7.2075Y-4.2225
X7.2075Y-4.3225
X7.2139Y-5.891
X7.2406Y-1.6987
X7.2481Y-4.0012
X7.3Y-2.08
X7.3Y-2.48
X7.3064Y-3.5885
X7.3075Y-4.3825
X7.3075Y-4.7825
X7.31Y-3.4
X7.3139Y-5.891
X7.3175Y-5.7025
X7.32Y-2.79
X7.32Y-3.19
X7.3275Y-5.0925
X7.3275Y-5.4925
X7.3406Y-1.6987
X7.3481Y-4.0012
X7.4Y-2.08
X7.4Y-2.48
X7.4064Y-3.5885
X7.4075Y-4.3825
X7.4075Y-4.7825
X7.41Y-3.4
X7.4139Y-5.891
X7.4175Y-5.7025
X7.42Y-2.79
X7.42Y-3.19
X7.4275Y-5.0925
X7.4275Y-5.4925
X7.5Y-1.62
X7.5Y-1.82
X7.5Y-2.08
X7.5Y-2.48
X7.5064Y-3.5885
X7.5075Y-3.9225
X7.5075Y-4.1225
X7.5075Y-4.3825
X7.5075Y-4.7825
X7.5139Y-5.891
X7.52Y-2.79
X7.52Y-3.19
X7.5275Y-5.0925
X7.5275Y-5.4925
X7.53Y-3.4
X7.5375Y-5.7025
X7.58Y-2.66
X7.5875Y-4.9625
X7.6Y-1.62
X7.6Y-1.82
X7.6Y-2.08
X7.6Y-2.48
X7.6064Y-3.5885
X7.6075Y-3.9225
X7.6075Y-4.1225
X7.6075Y-4.3825
X7.6075Y-4.7825
X7.6139Y-5.891
X7.63Y-3.4
X7.6375Y-5.7025
X7.67Y-2.86
X7.67Y-3.16
X7.6775Y-5.1625
X7.6775Y-5.4625
X7.68Y-2.66
X7.6875Y-4.9625
X7.7Y-1.62
X7.7Y-1.82
X7.7Y-2.01
X7.7Y-2.17
X7.7Y-2.47
X7.7064Y-3.5885
X7.7075Y-3.9225
X7.7075Y-4.1225
X7.7075Y-4.3125
X7.7075Y-4.4725
X7.7075Y-4.7725
X7.7139Y-5.891
X7.77Y-2.86
X7.77Y-3.16
X7.7775Y-5.1625
X7.7775Y-5.4625
X7.8Y-2.01
X7.8Y-2.17
X7.8Y-2.47
X7.8Y-2.66
X7.8075Y-4.3125
X7.8075Y-4.4725
X7.8075Y-4.7725
X7.8075Y-4.9625
X7.9Y-2.07
X7.9Y-2.47
X7.9Y-2.66
X7.9075Y-4.3725
X7.9075Y-4.7725
X7.9075Y-4.9625
X7.92Y-2.87
X7.92Y-2.97
X7.9275Y-5.1725
X7.9275Y-5.2725
T2
X3.13Y-2.045
X3.13Y-2.995
X3.13Y-4.345
X3.13Y-5.295
X3.78Y-2.575
X3.78Y-4.875
X4.09Y-2.215
X4.09Y-4.515
X4.17Y-2.515
X4.17Y-2.585
X4.17Y-4.815
X4.17Y-4.885
X5.08Y-2.125
X5.08Y-3.405
X5.08Y-4.425
X5.08Y-5.705
X5.19Y-2.635
X5.19Y-4.935
X5.96Y-2.63
X5.9675Y-4.9325
X6.07Y-1.86
X6.07Y-3.14
X6.0775Y-4.1625
X6.0775Y-5.4425
X6.98Y-2.68
X6.98Y-2.75
X6.9875Y-4.9825
X6.9875Y-5.0525
X7.06Y-3.05
X7.0675Y-5.3525
X7.37Y-2.69
X7.3775Y-4.9925
X8.02Y-2.27
X8.02Y-3.22
X8.0275Y-4.5725
X8.0275Y-5.5225
T3
X2.87Y-2.645
X2.87Y-4.945
X3.0668Y-2.4482
X3.0668Y-2.5466
X3.0668Y-2.7434
X3.0668Y-2.8418
X3.0668Y-4.7482
X3.0668Y-4.8466
X3.0668Y-5.0434
X3.0668Y-5.1418
X8.0832Y-2.4232
X8.0832Y-2.5216
X8.0832Y-2.7184
X8.0832Y-2.8168
X8.0907Y-4.7257
X8.0907Y-4.8241
X8.0907Y-5.0209
X8.0907Y-5.1193
X8.28Y-2.62
X8.2875Y-4.9225
T4
X2.8157Y-2.2116
X2.8157Y-3.0684
X2.8157Y-4.5116
X2.8157Y-5.3684
X2.9443Y-2.0584
X2.9443Y-3.2216
X2.9443Y-4.3584
X2.9443Y-5.5216
X3.0757Y-1.8916
X3.0757Y-4.1916
X3.0857Y-3.3884
X3.0857Y-5.6884
X3.2043Y-1.7384
X3.2043Y-4.0384
X3.2143Y-3.5416
X3.2143Y-5.8416
X7.9357Y-1.7234
X7.9432Y-4.0259
X7.9457Y-3.5266
X7.9532Y-5.8291
X8.0643Y-1.8766
X8.0718Y-4.1791
X8.0743Y-3.3734
X8.0818Y-5.6759
X8.2057Y-2.0434
X8.2057Y-3.2066
X8.2132Y-4.3459
X8.2132Y-5.5091
X8.3343Y-2.1966
X8.3343Y-3.0534
X8.3418Y-4.4991
X8.3418Y-5.3559
T5
X5.3306Y-2.267
X5.3306Y-3.3694
X5.3306Y-4.567
X5.3306Y-5.6694
X5.8194Y-1.8956
X5.8194Y-2.998
X5.8269Y-4.1981
X5.8269Y-5.3005
T0
M30
