G04 (created by PCBNEW (2013-07-07 BZR 4022)-stable) date 4/2/2015 4:19:38 PM*
%MOIN*%
G04 Gerber Fmt 3.4, Leading zero omitted, Abs format*
%FSLAX34Y34*%
G01*
G70*
G90*
G04 APERTURE LIST*
%ADD10C,0.00590551*%
%ADD11C,0.00787402*%
%ADD12C,0.012*%
%ADD13C,0.0035*%
G04 APERTURE END LIST*
G54D10*
G54D11*
X68251Y-15087D02*
X72188Y-15087D01*
X81243Y-15087D02*
X79668Y-15087D01*
X81243Y-37528D02*
X79668Y-37528D01*
X81243Y-15087D02*
X85574Y-20205D01*
X85574Y-21780D02*
X85574Y-20205D01*
X85574Y-25717D02*
X85574Y-21780D01*
X85574Y-32410D02*
X81243Y-37528D01*
X85574Y-32410D02*
X85574Y-25717D01*
X71794Y-37528D02*
X68251Y-37528D01*
X56046Y-27685D02*
X56046Y-24536D01*
X56046Y-35953D02*
G75*
G03X57621Y-37528I1574J0D01*
G74*
G01*
X57621Y-15087D02*
G75*
G03X56046Y-16662I0J-1574D01*
G74*
G01*
X43248Y-37562D02*
X39311Y-37562D01*
X30256Y-37562D02*
X31831Y-37562D01*
X30256Y-15121D02*
X31831Y-15121D01*
X30256Y-37562D02*
X25925Y-32444D01*
X25925Y-30869D02*
X25925Y-32444D01*
X25925Y-26932D02*
X25925Y-30869D01*
X25925Y-20239D02*
X30256Y-15121D01*
X25925Y-20239D02*
X25925Y-26932D01*
X39705Y-15121D02*
X43248Y-15121D01*
X55453Y-24964D02*
X55453Y-28113D01*
X55453Y-16696D02*
G75*
G03X53878Y-15121I-1574J0D01*
G74*
G01*
X53878Y-37562D02*
G75*
G03X55453Y-35987I0J1574D01*
G74*
G01*
X43248Y-60562D02*
X39311Y-60562D01*
X30256Y-60562D02*
X31831Y-60562D01*
X30256Y-38121D02*
X31831Y-38121D01*
X30256Y-60562D02*
X25925Y-55444D01*
X25925Y-53869D02*
X25925Y-55444D01*
X25925Y-49932D02*
X25925Y-53869D01*
X25925Y-43239D02*
X30256Y-38121D01*
X25925Y-43239D02*
X25925Y-49932D01*
X39705Y-38121D02*
X43248Y-38121D01*
X55453Y-47964D02*
X55453Y-51113D01*
X55453Y-39696D02*
G75*
G03X53878Y-38121I-1574J0D01*
G74*
G01*
X53878Y-60562D02*
G75*
G03X55453Y-58987I0J1574D01*
G74*
G01*
X68326Y-38112D02*
X72263Y-38112D01*
X81318Y-38112D02*
X79743Y-38112D01*
X81318Y-60553D02*
X79743Y-60553D01*
X81318Y-38112D02*
X85649Y-43230D01*
X85649Y-44805D02*
X85649Y-43230D01*
X85649Y-48742D02*
X85649Y-44805D01*
X85649Y-55435D02*
X81318Y-60553D01*
X85649Y-55435D02*
X85649Y-48742D01*
X71869Y-60553D02*
X68326Y-60553D01*
X56121Y-50710D02*
X56121Y-47561D01*
X56121Y-58978D02*
G75*
G03X57696Y-60553I1574J0D01*
G74*
G01*
X57696Y-38112D02*
G75*
G03X56121Y-39687I0J-1574D01*
G74*
G01*
G54D12*
X66918Y-35385D02*
X58918Y-35385D01*
X58918Y-35385D02*
X58918Y-36385D01*
X58918Y-36385D02*
X66918Y-36385D01*
X66918Y-36385D02*
X66918Y-35385D01*
X65918Y-36385D02*
X65918Y-35385D01*
X73906Y-16487D02*
X65906Y-16487D01*
X65906Y-16487D02*
X65906Y-17487D01*
X65906Y-17487D02*
X73906Y-17487D01*
X73906Y-17487D02*
X73906Y-16487D01*
X72906Y-17487D02*
X72906Y-16487D01*
X64933Y-17487D02*
X64933Y-16487D01*
X64933Y-16487D02*
X58933Y-16487D01*
X58933Y-16487D02*
X58933Y-17487D01*
X58933Y-17487D02*
X64933Y-17487D01*
X63933Y-17487D02*
X63933Y-16487D01*
X67563Y-35385D02*
X67563Y-36385D01*
X67563Y-36385D02*
X77563Y-36385D01*
X77563Y-36385D02*
X77563Y-35385D01*
X77563Y-35385D02*
X67563Y-35385D01*
X68563Y-35385D02*
X68563Y-36385D01*
X44581Y-17264D02*
X52581Y-17264D01*
X52581Y-17264D02*
X52581Y-16264D01*
X52581Y-16264D02*
X44581Y-16264D01*
X44581Y-16264D02*
X44581Y-17264D01*
X45581Y-16264D02*
X45581Y-17264D01*
X37593Y-36162D02*
X45593Y-36162D01*
X45593Y-36162D02*
X45593Y-35162D01*
X45593Y-35162D02*
X37593Y-35162D01*
X37593Y-35162D02*
X37593Y-36162D01*
X38593Y-35162D02*
X38593Y-36162D01*
X46566Y-35162D02*
X46566Y-36162D01*
X46566Y-36162D02*
X52566Y-36162D01*
X52566Y-36162D02*
X52566Y-35162D01*
X52566Y-35162D02*
X46566Y-35162D01*
X47566Y-35162D02*
X47566Y-36162D01*
X43936Y-17264D02*
X43936Y-16264D01*
X43936Y-16264D02*
X33936Y-16264D01*
X33936Y-16264D02*
X33936Y-17264D01*
X33936Y-17264D02*
X43936Y-17264D01*
X42936Y-17264D02*
X42936Y-16264D01*
X44581Y-40264D02*
X52581Y-40264D01*
X52581Y-40264D02*
X52581Y-39264D01*
X52581Y-39264D02*
X44581Y-39264D01*
X44581Y-39264D02*
X44581Y-40264D01*
X45581Y-39264D02*
X45581Y-40264D01*
X37593Y-59162D02*
X45593Y-59162D01*
X45593Y-59162D02*
X45593Y-58162D01*
X45593Y-58162D02*
X37593Y-58162D01*
X37593Y-58162D02*
X37593Y-59162D01*
X38593Y-58162D02*
X38593Y-59162D01*
X46566Y-58162D02*
X46566Y-59162D01*
X46566Y-59162D02*
X52566Y-59162D01*
X52566Y-59162D02*
X52566Y-58162D01*
X52566Y-58162D02*
X46566Y-58162D01*
X47566Y-58162D02*
X47566Y-59162D01*
X43936Y-40264D02*
X43936Y-39264D01*
X43936Y-39264D02*
X33936Y-39264D01*
X33936Y-39264D02*
X33936Y-40264D01*
X33936Y-40264D02*
X43936Y-40264D01*
X42936Y-40264D02*
X42936Y-39264D01*
X66993Y-58410D02*
X58993Y-58410D01*
X58993Y-58410D02*
X58993Y-59410D01*
X58993Y-59410D02*
X66993Y-59410D01*
X66993Y-59410D02*
X66993Y-58410D01*
X65993Y-59410D02*
X65993Y-58410D01*
X73981Y-39512D02*
X65981Y-39512D01*
X65981Y-39512D02*
X65981Y-40512D01*
X65981Y-40512D02*
X73981Y-40512D01*
X73981Y-40512D02*
X73981Y-39512D01*
X72981Y-40512D02*
X72981Y-39512D01*
X65008Y-40512D02*
X65008Y-39512D01*
X65008Y-39512D02*
X59008Y-39512D01*
X59008Y-39512D02*
X59008Y-40512D01*
X59008Y-40512D02*
X65008Y-40512D01*
X64008Y-40512D02*
X64008Y-39512D01*
X67638Y-58410D02*
X67638Y-59410D01*
X67638Y-59410D02*
X77638Y-59410D01*
X77638Y-59410D02*
X77638Y-58410D01*
X77638Y-58410D02*
X67638Y-58410D01*
X68638Y-58410D02*
X68638Y-59410D01*
G54D13*
X74642Y-18290D02*
X74809Y-18290D01*
X74880Y-18552D02*
X74642Y-18552D01*
X74642Y-18052D01*
X74880Y-18052D01*
X77057Y-18052D02*
X77342Y-18052D01*
X77200Y-18552D02*
X77200Y-18052D01*
X76428Y-28450D02*
X76457Y-28421D01*
X76514Y-28392D01*
X76657Y-28392D01*
X76714Y-28421D01*
X76742Y-28450D01*
X76771Y-28507D01*
X76771Y-28564D01*
X76742Y-28650D01*
X76400Y-28992D01*
X76771Y-28992D01*
X36642Y-34240D02*
X36809Y-34240D01*
X36880Y-34502D02*
X36642Y-34502D01*
X36642Y-34002D01*
X36880Y-34002D01*
X34157Y-34002D02*
X34442Y-34002D01*
X34300Y-34502D02*
X34300Y-34002D01*
X34728Y-23600D02*
X34757Y-23571D01*
X34814Y-23542D01*
X34957Y-23542D01*
X35014Y-23571D01*
X35042Y-23600D01*
X35071Y-23657D01*
X35071Y-23714D01*
X35042Y-23800D01*
X34700Y-24142D01*
X35071Y-24142D01*
X36642Y-57240D02*
X36809Y-57240D01*
X36880Y-57502D02*
X36642Y-57502D01*
X36642Y-57002D01*
X36880Y-57002D01*
X34157Y-57002D02*
X34442Y-57002D01*
X34300Y-57502D02*
X34300Y-57002D01*
X34728Y-46600D02*
X34757Y-46571D01*
X34814Y-46542D01*
X34957Y-46542D01*
X35014Y-46571D01*
X35042Y-46600D01*
X35071Y-46657D01*
X35071Y-46714D01*
X35042Y-46800D01*
X34700Y-47142D01*
X35071Y-47142D01*
X74717Y-41315D02*
X74884Y-41315D01*
X74955Y-41577D02*
X74717Y-41577D01*
X74717Y-41077D01*
X74955Y-41077D01*
X77132Y-41077D02*
X77417Y-41077D01*
X77275Y-41577D02*
X77275Y-41077D01*
X76503Y-51475D02*
X76532Y-51446D01*
X76589Y-51417D01*
X76732Y-51417D01*
X76789Y-51446D01*
X76817Y-51475D01*
X76846Y-51532D01*
X76846Y-51589D01*
X76817Y-51675D01*
X76475Y-52017D01*
X76846Y-52017D01*
M02*
