G04 (created by PCBNEW (2013-07-07 BZR 4022)-stable) date 4/2/2015 4:19:38 PM*
%MOIN*%
G04 Gerber Fmt 3.4, Leading zero omitted, Abs format*
%FSLAX34Y34*%
G01*
G70*
G90*
G04 APERTURE LIST*
%ADD10C,0.00590551*%
%ADD11C,0.00787402*%
%ADD12O,0.052X0.104*%
%ADD13C,0.0859*%
%ADD14R,0.065X0.065*%
%ADD15O,0.062X0.09*%
%ADD16O,0.09X0.062*%
%ADD17C,0.07*%
%ADD18C,0.062*%
%ADD19C,0.066*%
%ADD20R,0.062X0.09*%
%ADD21R,0.055X0.055*%
%ADD22C,0.055*%
%ADD23C,0.1*%
%ADD24C,0.16*%
G04 APERTURE END LIST*
G54D10*
G54D11*
X68251Y-15087D02*
X72188Y-15087D01*
X81243Y-15087D02*
X79668Y-15087D01*
X81243Y-37528D02*
X79668Y-37528D01*
X81243Y-15087D02*
X85574Y-20205D01*
X85574Y-21780D02*
X85574Y-20205D01*
X85574Y-25717D02*
X85574Y-21780D01*
X85574Y-32410D02*
X81243Y-37528D01*
X85574Y-32410D02*
X85574Y-25717D01*
X71794Y-37528D02*
X68251Y-37528D01*
X56046Y-27685D02*
X56046Y-24536D01*
X56046Y-35953D02*
G75*
G03X57621Y-37528I1574J0D01*
G74*
G01*
X57621Y-15087D02*
G75*
G03X56046Y-16662I0J-1574D01*
G74*
G01*
X43248Y-37562D02*
X39311Y-37562D01*
X30256Y-37562D02*
X31831Y-37562D01*
X30256Y-15121D02*
X31831Y-15121D01*
X30256Y-37562D02*
X25925Y-32444D01*
X25925Y-30869D02*
X25925Y-32444D01*
X25925Y-26932D02*
X25925Y-30869D01*
X25925Y-20239D02*
X30256Y-15121D01*
X25925Y-20239D02*
X25925Y-26932D01*
X39705Y-15121D02*
X43248Y-15121D01*
X55453Y-24964D02*
X55453Y-28113D01*
X55453Y-16696D02*
G75*
G03X53878Y-15121I-1574J0D01*
G74*
G01*
X53878Y-37562D02*
G75*
G03X55453Y-35987I0J1574D01*
G74*
G01*
X43248Y-60562D02*
X39311Y-60562D01*
X30256Y-60562D02*
X31831Y-60562D01*
X30256Y-38121D02*
X31831Y-38121D01*
X30256Y-60562D02*
X25925Y-55444D01*
X25925Y-53869D02*
X25925Y-55444D01*
X25925Y-49932D02*
X25925Y-53869D01*
X25925Y-43239D02*
X30256Y-38121D01*
X25925Y-43239D02*
X25925Y-49932D01*
X39705Y-38121D02*
X43248Y-38121D01*
X55453Y-47964D02*
X55453Y-51113D01*
X55453Y-39696D02*
G75*
G03X53878Y-38121I-1574J0D01*
G74*
G01*
X53878Y-60562D02*
G75*
G03X55453Y-58987I0J1574D01*
G74*
G01*
X68326Y-38112D02*
X72263Y-38112D01*
X81318Y-38112D02*
X79743Y-38112D01*
X81318Y-60553D02*
X79743Y-60553D01*
X81318Y-38112D02*
X85649Y-43230D01*
X85649Y-44805D02*
X85649Y-43230D01*
X85649Y-48742D02*
X85649Y-44805D01*
X85649Y-55435D02*
X81318Y-60553D01*
X85649Y-55435D02*
X85649Y-48742D01*
X71869Y-60553D02*
X68326Y-60553D01*
X56121Y-50710D02*
X56121Y-47561D01*
X56121Y-58978D02*
G75*
G03X57696Y-60553I1574J0D01*
G74*
G01*
X57696Y-38112D02*
G75*
G03X56121Y-39687I0J-1574D01*
G74*
G01*
G54D12*
X77000Y-18200D03*
X76000Y-18200D03*
X75000Y-18200D03*
X77000Y-16200D03*
X76000Y-16200D03*
X75000Y-16200D03*
G54D13*
X82800Y-26200D03*
X80832Y-28168D03*
X80832Y-27184D03*
X80832Y-25216D03*
X80832Y-24232D03*
G54D14*
X66418Y-35885D03*
G54D15*
X65418Y-35885D03*
X64418Y-35885D03*
X63418Y-35885D03*
X62418Y-35885D03*
X61418Y-35885D03*
X60418Y-35885D03*
X59418Y-35885D03*
G54D14*
X73406Y-16987D03*
G54D15*
X72406Y-16987D03*
X71406Y-16987D03*
X70406Y-16987D03*
X69406Y-16987D03*
X68406Y-16987D03*
X67406Y-16987D03*
X66406Y-16987D03*
G54D14*
X64433Y-16987D03*
G54D15*
X63433Y-16987D03*
X62433Y-16987D03*
X61433Y-16987D03*
X60433Y-16987D03*
X59433Y-16987D03*
G54D14*
X57300Y-24300D03*
G54D16*
X57300Y-23300D03*
X57300Y-22300D03*
X57300Y-21300D03*
X57300Y-20300D03*
G54D14*
X57300Y-35200D03*
G54D16*
X57300Y-34200D03*
X57300Y-33200D03*
X57300Y-32200D03*
G54D14*
X57300Y-25500D03*
G54D16*
X57300Y-26500D03*
X57300Y-27500D03*
X57300Y-28500D03*
G54D14*
X79200Y-28700D03*
G54D17*
X79200Y-29700D03*
G54D14*
X68063Y-35885D03*
G54D15*
X69063Y-35885D03*
X70063Y-35885D03*
X71063Y-35885D03*
X72063Y-35885D03*
X73063Y-35885D03*
X74063Y-35885D03*
X75063Y-35885D03*
X76063Y-35885D03*
X77063Y-35885D03*
G54D17*
X59700Y-32400D03*
X59700Y-28400D03*
X68000Y-19200D03*
X72000Y-19200D03*
X74000Y-24800D03*
X74000Y-20800D03*
X68000Y-20200D03*
X72000Y-20200D03*
X72000Y-18200D03*
X68000Y-18200D03*
X75000Y-20800D03*
X75000Y-24800D03*
X73000Y-20800D03*
X73000Y-24800D03*
X79000Y-20700D03*
X79000Y-24700D03*
X76000Y-24800D03*
X76000Y-20800D03*
X61600Y-20800D03*
X61600Y-24800D03*
X60600Y-20800D03*
X60600Y-24800D03*
X73200Y-31900D03*
X73200Y-27900D03*
G54D18*
X59700Y-34000D03*
G54D19*
X58700Y-34000D03*
X66900Y-34000D03*
G54D18*
X65900Y-34000D03*
X63300Y-34000D03*
X62300Y-34000D03*
G54D17*
X78000Y-20100D03*
X77000Y-20100D03*
G54D19*
X76300Y-34000D03*
X75300Y-34000D03*
G54D18*
X61500Y-34000D03*
X60500Y-34000D03*
G54D19*
X69700Y-34000D03*
X68700Y-34000D03*
X74100Y-34000D03*
X73100Y-34000D03*
X71900Y-34000D03*
X70900Y-34000D03*
G54D18*
X65100Y-34000D03*
X64100Y-34000D03*
G54D17*
X65700Y-19600D03*
X63700Y-19600D03*
G54D20*
X71200Y-21900D03*
G54D15*
X70200Y-21900D03*
X69200Y-21900D03*
X68200Y-21900D03*
X67200Y-21900D03*
X66200Y-21900D03*
X65200Y-21900D03*
X64200Y-21900D03*
X63200Y-21900D03*
X63200Y-24900D03*
X64200Y-24900D03*
X65200Y-24900D03*
X66200Y-24900D03*
X67200Y-24900D03*
X68200Y-24900D03*
X69200Y-24900D03*
X70200Y-24900D03*
X71200Y-24900D03*
G54D20*
X71200Y-28400D03*
G54D15*
X70200Y-28400D03*
X69200Y-28400D03*
X68200Y-28400D03*
X67200Y-28400D03*
X66200Y-28400D03*
X65200Y-28400D03*
X64200Y-28400D03*
X64200Y-31400D03*
X65200Y-31400D03*
X66200Y-31400D03*
X67200Y-31400D03*
X68200Y-31400D03*
X69200Y-31400D03*
X70200Y-31400D03*
X71200Y-31400D03*
G54D21*
X77000Y-21700D03*
G54D17*
X77000Y-24700D03*
G54D21*
X78000Y-21700D03*
G54D17*
X78000Y-24700D03*
G54D21*
X59600Y-21800D03*
G54D22*
X59600Y-24800D03*
G54D14*
X75800Y-26600D03*
G54D17*
X76800Y-26600D03*
G54D14*
X78000Y-26600D03*
G54D17*
X79000Y-26600D03*
G54D10*
G36*
X82118Y-32770D02*
X81352Y-32127D01*
X81995Y-31361D01*
X82761Y-32004D01*
X82118Y-32770D01*
X82118Y-32770D01*
G37*
G54D23*
X83342Y-30533D03*
G54D10*
G36*
X79518Y-35970D02*
X78752Y-35327D01*
X79395Y-34561D01*
X80161Y-35204D01*
X79518Y-35970D01*
X79518Y-35970D01*
G37*
G54D23*
X80742Y-33733D03*
G54D10*
G36*
X84047Y-22027D02*
X83281Y-22670D01*
X82638Y-21904D01*
X83404Y-21261D01*
X84047Y-22027D01*
X84047Y-22027D01*
G37*
G54D23*
X82057Y-20433D03*
G54D24*
X58193Y-18955D03*
X58193Y-29979D03*
G54D12*
X77700Y-28600D03*
X76700Y-28600D03*
X76700Y-31600D03*
X77700Y-31600D03*
G54D17*
X74200Y-27900D03*
X74200Y-31900D03*
X75200Y-27900D03*
X75200Y-31900D03*
G54D10*
G36*
X81347Y-18827D02*
X80581Y-19470D01*
X79938Y-18704D01*
X80704Y-18061D01*
X81347Y-18827D01*
X81347Y-18827D01*
G37*
G54D23*
X79357Y-17233D03*
G54D12*
X34500Y-34450D03*
X35500Y-34450D03*
X36500Y-34450D03*
X34500Y-36450D03*
X35500Y-36450D03*
X36500Y-36450D03*
G54D13*
X28700Y-26450D03*
X30668Y-24482D03*
X30668Y-25466D03*
X30668Y-27434D03*
X30668Y-28418D03*
G54D14*
X45081Y-16764D03*
G54D15*
X46081Y-16764D03*
X47081Y-16764D03*
X48081Y-16764D03*
X49081Y-16764D03*
X50081Y-16764D03*
X51081Y-16764D03*
X52081Y-16764D03*
G54D14*
X38093Y-35662D03*
G54D15*
X39093Y-35662D03*
X40093Y-35662D03*
X41093Y-35662D03*
X42093Y-35662D03*
X43093Y-35662D03*
X44093Y-35662D03*
X45093Y-35662D03*
G54D14*
X47066Y-35662D03*
G54D15*
X48066Y-35662D03*
X49066Y-35662D03*
X50066Y-35662D03*
X51066Y-35662D03*
X52066Y-35662D03*
G54D14*
X54200Y-28350D03*
G54D16*
X54200Y-29350D03*
X54200Y-30350D03*
X54200Y-31350D03*
X54200Y-32350D03*
G54D14*
X54200Y-17450D03*
G54D16*
X54200Y-18450D03*
X54200Y-19450D03*
X54200Y-20450D03*
G54D14*
X54200Y-27150D03*
G54D16*
X54200Y-26150D03*
X54200Y-25150D03*
X54200Y-24150D03*
G54D14*
X32300Y-23950D03*
G54D17*
X32300Y-22950D03*
G54D14*
X43436Y-16764D03*
G54D15*
X42436Y-16764D03*
X41436Y-16764D03*
X40436Y-16764D03*
X39436Y-16764D03*
X38436Y-16764D03*
X37436Y-16764D03*
X36436Y-16764D03*
X35436Y-16764D03*
X34436Y-16764D03*
G54D17*
X51800Y-20250D03*
X51800Y-24250D03*
X43500Y-33450D03*
X39500Y-33450D03*
X37500Y-27850D03*
X37500Y-31850D03*
X43500Y-32450D03*
X39500Y-32450D03*
X39500Y-34450D03*
X43500Y-34450D03*
X36500Y-31850D03*
X36500Y-27850D03*
X38500Y-31850D03*
X38500Y-27850D03*
X32500Y-31950D03*
X32500Y-27950D03*
X35500Y-27850D03*
X35500Y-31850D03*
X49900Y-31850D03*
X49900Y-27850D03*
X50900Y-31850D03*
X50900Y-27850D03*
X38300Y-20750D03*
X38300Y-24750D03*
G54D18*
X51800Y-18650D03*
G54D19*
X52800Y-18650D03*
X44600Y-18650D03*
G54D18*
X45600Y-18650D03*
X48200Y-18650D03*
X49200Y-18650D03*
G54D17*
X33500Y-32550D03*
X34500Y-32550D03*
G54D19*
X35200Y-18650D03*
X36200Y-18650D03*
G54D18*
X50000Y-18650D03*
X51000Y-18650D03*
G54D19*
X41800Y-18650D03*
X42800Y-18650D03*
X37400Y-18650D03*
X38400Y-18650D03*
X39600Y-18650D03*
X40600Y-18650D03*
G54D18*
X46400Y-18650D03*
X47400Y-18650D03*
G54D17*
X45800Y-33050D03*
X47800Y-33050D03*
G54D20*
X40300Y-30750D03*
G54D15*
X41300Y-30750D03*
X42300Y-30750D03*
X43300Y-30750D03*
X44300Y-30750D03*
X45300Y-30750D03*
X46300Y-30750D03*
X47300Y-30750D03*
X48300Y-30750D03*
X48300Y-27750D03*
X47300Y-27750D03*
X46300Y-27750D03*
X45300Y-27750D03*
X44300Y-27750D03*
X43300Y-27750D03*
X42300Y-27750D03*
X41300Y-27750D03*
X40300Y-27750D03*
G54D20*
X40300Y-24250D03*
G54D15*
X41300Y-24250D03*
X42300Y-24250D03*
X43300Y-24250D03*
X44300Y-24250D03*
X45300Y-24250D03*
X46300Y-24250D03*
X47300Y-24250D03*
X47300Y-21250D03*
X46300Y-21250D03*
X45300Y-21250D03*
X44300Y-21250D03*
X43300Y-21250D03*
X42300Y-21250D03*
X41300Y-21250D03*
X40300Y-21250D03*
G54D21*
X34500Y-30950D03*
G54D17*
X34500Y-27950D03*
G54D21*
X33500Y-30950D03*
G54D17*
X33500Y-27950D03*
G54D21*
X51900Y-30850D03*
G54D22*
X51900Y-27850D03*
G54D14*
X35700Y-26050D03*
G54D17*
X34700Y-26050D03*
G54D14*
X33500Y-26050D03*
G54D17*
X32500Y-26050D03*
G54D10*
G36*
X29381Y-19879D02*
X30147Y-20522D01*
X29504Y-21288D01*
X28738Y-20645D01*
X29381Y-19879D01*
X29381Y-19879D01*
G37*
G54D23*
X28157Y-22116D03*
G54D10*
G36*
X31981Y-16679D02*
X32747Y-17322D01*
X32104Y-18088D01*
X31338Y-17445D01*
X31981Y-16679D01*
X31981Y-16679D01*
G37*
G54D23*
X30757Y-18916D03*
G54D10*
G36*
X27452Y-30622D02*
X28218Y-29979D01*
X28861Y-30745D01*
X28095Y-31388D01*
X27452Y-30622D01*
X27452Y-30622D01*
G37*
G54D23*
X29442Y-32216D03*
G54D24*
X53306Y-33694D03*
X53306Y-22670D03*
G54D12*
X33800Y-24050D03*
X34800Y-24050D03*
X34800Y-21050D03*
X33800Y-21050D03*
G54D17*
X37300Y-24750D03*
X37300Y-20750D03*
X36300Y-24750D03*
X36300Y-20750D03*
G54D10*
G36*
X30152Y-33822D02*
X30918Y-33179D01*
X31561Y-33945D01*
X30795Y-34588D01*
X30152Y-33822D01*
X30152Y-33822D01*
G37*
G54D23*
X32142Y-35416D03*
G54D12*
X34500Y-57450D03*
X35500Y-57450D03*
X36500Y-57450D03*
X34500Y-59450D03*
X35500Y-59450D03*
X36500Y-59450D03*
G54D13*
X28700Y-49450D03*
X30668Y-47482D03*
X30668Y-48466D03*
X30668Y-50434D03*
X30668Y-51418D03*
G54D14*
X45081Y-39764D03*
G54D15*
X46081Y-39764D03*
X47081Y-39764D03*
X48081Y-39764D03*
X49081Y-39764D03*
X50081Y-39764D03*
X51081Y-39764D03*
X52081Y-39764D03*
G54D14*
X38093Y-58662D03*
G54D15*
X39093Y-58662D03*
X40093Y-58662D03*
X41093Y-58662D03*
X42093Y-58662D03*
X43093Y-58662D03*
X44093Y-58662D03*
X45093Y-58662D03*
G54D14*
X47066Y-58662D03*
G54D15*
X48066Y-58662D03*
X49066Y-58662D03*
X50066Y-58662D03*
X51066Y-58662D03*
X52066Y-58662D03*
G54D14*
X54200Y-51350D03*
G54D16*
X54200Y-52350D03*
X54200Y-53350D03*
X54200Y-54350D03*
X54200Y-55350D03*
G54D14*
X54200Y-40450D03*
G54D16*
X54200Y-41450D03*
X54200Y-42450D03*
X54200Y-43450D03*
G54D14*
X54200Y-50150D03*
G54D16*
X54200Y-49150D03*
X54200Y-48150D03*
X54200Y-47150D03*
G54D14*
X32300Y-46950D03*
G54D17*
X32300Y-45950D03*
G54D14*
X43436Y-39764D03*
G54D15*
X42436Y-39764D03*
X41436Y-39764D03*
X40436Y-39764D03*
X39436Y-39764D03*
X38436Y-39764D03*
X37436Y-39764D03*
X36436Y-39764D03*
X35436Y-39764D03*
X34436Y-39764D03*
G54D17*
X51800Y-43250D03*
X51800Y-47250D03*
X43500Y-56450D03*
X39500Y-56450D03*
X37500Y-50850D03*
X37500Y-54850D03*
X43500Y-55450D03*
X39500Y-55450D03*
X39500Y-57450D03*
X43500Y-57450D03*
X36500Y-54850D03*
X36500Y-50850D03*
X38500Y-54850D03*
X38500Y-50850D03*
X32500Y-54950D03*
X32500Y-50950D03*
X35500Y-50850D03*
X35500Y-54850D03*
X49900Y-54850D03*
X49900Y-50850D03*
X50900Y-54850D03*
X50900Y-50850D03*
X38300Y-43750D03*
X38300Y-47750D03*
G54D18*
X51800Y-41650D03*
G54D19*
X52800Y-41650D03*
X44600Y-41650D03*
G54D18*
X45600Y-41650D03*
X48200Y-41650D03*
X49200Y-41650D03*
G54D17*
X33500Y-55550D03*
X34500Y-55550D03*
G54D19*
X35200Y-41650D03*
X36200Y-41650D03*
G54D18*
X50000Y-41650D03*
X51000Y-41650D03*
G54D19*
X41800Y-41650D03*
X42800Y-41650D03*
X37400Y-41650D03*
X38400Y-41650D03*
X39600Y-41650D03*
X40600Y-41650D03*
G54D18*
X46400Y-41650D03*
X47400Y-41650D03*
G54D17*
X45800Y-56050D03*
X47800Y-56050D03*
G54D20*
X40300Y-53750D03*
G54D15*
X41300Y-53750D03*
X42300Y-53750D03*
X43300Y-53750D03*
X44300Y-53750D03*
X45300Y-53750D03*
X46300Y-53750D03*
X47300Y-53750D03*
X48300Y-53750D03*
X48300Y-50750D03*
X47300Y-50750D03*
X46300Y-50750D03*
X45300Y-50750D03*
X44300Y-50750D03*
X43300Y-50750D03*
X42300Y-50750D03*
X41300Y-50750D03*
X40300Y-50750D03*
G54D20*
X40300Y-47250D03*
G54D15*
X41300Y-47250D03*
X42300Y-47250D03*
X43300Y-47250D03*
X44300Y-47250D03*
X45300Y-47250D03*
X46300Y-47250D03*
X47300Y-47250D03*
X47300Y-44250D03*
X46300Y-44250D03*
X45300Y-44250D03*
X44300Y-44250D03*
X43300Y-44250D03*
X42300Y-44250D03*
X41300Y-44250D03*
X40300Y-44250D03*
G54D21*
X34500Y-53950D03*
G54D17*
X34500Y-50950D03*
G54D21*
X33500Y-53950D03*
G54D17*
X33500Y-50950D03*
G54D21*
X51900Y-53850D03*
G54D22*
X51900Y-50850D03*
G54D14*
X35700Y-49050D03*
G54D17*
X34700Y-49050D03*
G54D14*
X33500Y-49050D03*
G54D17*
X32500Y-49050D03*
G54D10*
G36*
X29381Y-42879D02*
X30147Y-43522D01*
X29504Y-44288D01*
X28738Y-43645D01*
X29381Y-42879D01*
X29381Y-42879D01*
G37*
G54D23*
X28157Y-45116D03*
G54D10*
G36*
X31981Y-39679D02*
X32747Y-40322D01*
X32104Y-41088D01*
X31338Y-40445D01*
X31981Y-39679D01*
X31981Y-39679D01*
G37*
G54D23*
X30757Y-41916D03*
G54D10*
G36*
X27452Y-53622D02*
X28218Y-52979D01*
X28861Y-53745D01*
X28095Y-54388D01*
X27452Y-53622D01*
X27452Y-53622D01*
G37*
G54D23*
X29442Y-55216D03*
G54D24*
X53306Y-56694D03*
X53306Y-45670D03*
G54D12*
X33800Y-47050D03*
X34800Y-47050D03*
X34800Y-44050D03*
X33800Y-44050D03*
G54D17*
X37300Y-47750D03*
X37300Y-43750D03*
X36300Y-47750D03*
X36300Y-43750D03*
G54D10*
G36*
X30152Y-56822D02*
X30918Y-56179D01*
X31561Y-56945D01*
X30795Y-57588D01*
X30152Y-56822D01*
X30152Y-56822D01*
G37*
G54D23*
X32142Y-58416D03*
G54D12*
X77075Y-41225D03*
X76075Y-41225D03*
X75075Y-41225D03*
X77075Y-39225D03*
X76075Y-39225D03*
X75075Y-39225D03*
G54D13*
X82875Y-49225D03*
X80907Y-51193D03*
X80907Y-50209D03*
X80907Y-48241D03*
X80907Y-47257D03*
G54D14*
X66493Y-58910D03*
G54D15*
X65493Y-58910D03*
X64493Y-58910D03*
X63493Y-58910D03*
X62493Y-58910D03*
X61493Y-58910D03*
X60493Y-58910D03*
X59493Y-58910D03*
G54D14*
X73481Y-40012D03*
G54D15*
X72481Y-40012D03*
X71481Y-40012D03*
X70481Y-40012D03*
X69481Y-40012D03*
X68481Y-40012D03*
X67481Y-40012D03*
X66481Y-40012D03*
G54D14*
X64508Y-40012D03*
G54D15*
X63508Y-40012D03*
X62508Y-40012D03*
X61508Y-40012D03*
X60508Y-40012D03*
X59508Y-40012D03*
G54D14*
X57375Y-47325D03*
G54D16*
X57375Y-46325D03*
X57375Y-45325D03*
X57375Y-44325D03*
X57375Y-43325D03*
G54D14*
X57375Y-58225D03*
G54D16*
X57375Y-57225D03*
X57375Y-56225D03*
X57375Y-55225D03*
G54D14*
X57375Y-48525D03*
G54D16*
X57375Y-49525D03*
X57375Y-50525D03*
X57375Y-51525D03*
G54D14*
X79275Y-51725D03*
G54D17*
X79275Y-52725D03*
G54D14*
X68138Y-58910D03*
G54D15*
X69138Y-58910D03*
X70138Y-58910D03*
X71138Y-58910D03*
X72138Y-58910D03*
X73138Y-58910D03*
X74138Y-58910D03*
X75138Y-58910D03*
X76138Y-58910D03*
X77138Y-58910D03*
G54D17*
X59775Y-55425D03*
X59775Y-51425D03*
X68075Y-42225D03*
X72075Y-42225D03*
X74075Y-47825D03*
X74075Y-43825D03*
X68075Y-43225D03*
X72075Y-43225D03*
X72075Y-41225D03*
X68075Y-41225D03*
X75075Y-43825D03*
X75075Y-47825D03*
X73075Y-43825D03*
X73075Y-47825D03*
X79075Y-43725D03*
X79075Y-47725D03*
X76075Y-47825D03*
X76075Y-43825D03*
X61675Y-43825D03*
X61675Y-47825D03*
X60675Y-43825D03*
X60675Y-47825D03*
X73275Y-54925D03*
X73275Y-50925D03*
G54D18*
X59775Y-57025D03*
G54D19*
X58775Y-57025D03*
X66975Y-57025D03*
G54D18*
X65975Y-57025D03*
X63375Y-57025D03*
X62375Y-57025D03*
G54D17*
X78075Y-43125D03*
X77075Y-43125D03*
G54D19*
X76375Y-57025D03*
X75375Y-57025D03*
G54D18*
X61575Y-57025D03*
X60575Y-57025D03*
G54D19*
X69775Y-57025D03*
X68775Y-57025D03*
X74175Y-57025D03*
X73175Y-57025D03*
X71975Y-57025D03*
X70975Y-57025D03*
G54D18*
X65175Y-57025D03*
X64175Y-57025D03*
G54D17*
X65775Y-42625D03*
X63775Y-42625D03*
G54D20*
X71275Y-44925D03*
G54D15*
X70275Y-44925D03*
X69275Y-44925D03*
X68275Y-44925D03*
X67275Y-44925D03*
X66275Y-44925D03*
X65275Y-44925D03*
X64275Y-44925D03*
X63275Y-44925D03*
X63275Y-47925D03*
X64275Y-47925D03*
X65275Y-47925D03*
X66275Y-47925D03*
X67275Y-47925D03*
X68275Y-47925D03*
X69275Y-47925D03*
X70275Y-47925D03*
X71275Y-47925D03*
G54D20*
X71275Y-51425D03*
G54D15*
X70275Y-51425D03*
X69275Y-51425D03*
X68275Y-51425D03*
X67275Y-51425D03*
X66275Y-51425D03*
X65275Y-51425D03*
X64275Y-51425D03*
X64275Y-54425D03*
X65275Y-54425D03*
X66275Y-54425D03*
X67275Y-54425D03*
X68275Y-54425D03*
X69275Y-54425D03*
X70275Y-54425D03*
X71275Y-54425D03*
G54D21*
X77075Y-44725D03*
G54D17*
X77075Y-47725D03*
G54D21*
X78075Y-44725D03*
G54D17*
X78075Y-47725D03*
G54D21*
X59675Y-44825D03*
G54D22*
X59675Y-47825D03*
G54D14*
X75875Y-49625D03*
G54D17*
X76875Y-49625D03*
G54D14*
X78075Y-49625D03*
G54D17*
X79075Y-49625D03*
G54D10*
G36*
X82193Y-55795D02*
X81427Y-55152D01*
X82070Y-54386D01*
X82836Y-55029D01*
X82193Y-55795D01*
X82193Y-55795D01*
G37*
G54D23*
X83417Y-53558D03*
G54D10*
G36*
X79593Y-58995D02*
X78827Y-58352D01*
X79470Y-57586D01*
X80236Y-58229D01*
X79593Y-58995D01*
X79593Y-58995D01*
G37*
G54D23*
X80817Y-56758D03*
G54D10*
G36*
X84122Y-45052D02*
X83356Y-45695D01*
X82713Y-44929D01*
X83479Y-44286D01*
X84122Y-45052D01*
X84122Y-45052D01*
G37*
G54D23*
X82132Y-43458D03*
G54D24*
X58268Y-41980D03*
X58268Y-53004D03*
G54D12*
X77775Y-51625D03*
X76775Y-51625D03*
X76775Y-54625D03*
X77775Y-54625D03*
G54D17*
X74275Y-50925D03*
X74275Y-54925D03*
X75275Y-50925D03*
X75275Y-54925D03*
G54D10*
G36*
X81422Y-41852D02*
X80656Y-42495D01*
X80013Y-41729D01*
X80779Y-41086D01*
X81422Y-41852D01*
X81422Y-41852D01*
G37*
G54D23*
X79432Y-40258D03*
M02*
